<?xml version="1.0" standalone="no"?>
<!DOCTYPE svg PUBLIC "-//W3C//DTD SVG 20010904//EN"
 "http://www.w3.org/TR/2001/REC-SVG-20010904/DTD/svg10.dtd">
<svg version="1.0" xmlns="http://www.w3.org/2000/svg"
 width="510.000000pt" height="510.000000pt" viewBox="0 0 510.000000 510.000000"
 preserveAspectRatio="xMidYMid meet">
<metadata>
Created by potrace 1.11, written by Peter Selinger 2001-2013
</metadata>
<g transform="translate(0.000000,510.000000) scale(0.100000,-0.100000)"
fill="#000000" stroke="none">
<path d="M255 3417 l-250 -144 0 -293 0 -293 252 -144 253 -145 255 146 255
146 255 -146 255 -145 2 -291 3 -291 252 -144 253 -145 255 146 255 146 255
-146 255 -146 255 146 255 146 255 -146 255 -146 253 145 252 144 5 292 5 292
250 143 250 143 0 293 0 293 -253 145 -252 145 -255 -146 -255 -147 -255 146
-254 147 -103 -58 c-57 -32 -171 -98 -255 -147 l-152 -88 -255 146 -256 147
-255 -146 -255 -147 -255 147 -255 146 -255 -146 -255 -147 -252 145 c-139 80
-255 145 -258 145 -3 0 -118 -65 -255 -143z m1115 -394 c0 -225 2 -251 19
-279 38 -62 150 -85 216 -44 60 37 65 60 65 329 l0 241 31 0 32 0 -5 -242 c-4
-217 -7 -248 -25 -289 -21 -47 -68 -91 -112 -104 -44 -14 -129 -6 -170 15 -96
48 -110 104 -111 423 l0 197 30 0 30 0 0 -247z m-775 207 c29 -18 41 -36 58
-92 9 -27 -11 -82 -38 -108 -28 -27 -32 -40 -10 -40 26 0 84 -60 95 -98 18
-67 -18 -145 -83 -178 -20 -11 -68 -18 -139 -22 l-108 -5 0 288 0 288 96 -6
c71 -5 105 -12 129 -27z m1985 -255 l0 -285 -30 0 -30 0 0 285 0 285 30 0 30
0 0 -285z m920 25 l0 -260 110 0 110 0 0 -25 0 -25 -140 0 -140 0 0 285 0 285
30 0 30 0 0 -260z m1250 235 c0 -24 -2 -25 -65 -25 l-65 0 0 -260 0 -260 -30
0 -30 0 0 260 0 260 -65 0 c-63 0 -65 1 -65 25 l0 25 160 0 160 0 0 -25z
m-2605 -885 c29 -18 41 -36 58 -92 9 -27 -11 -82 -38 -108 -28 -27 -32 -40
-10 -40 26 0 84 -60 95 -98 18 -67 -18 -145 -83 -178 -20 -11 -68 -18 -139
-22 l-108 -5 0 288 0 288 96 -6 c71 -5 105 -12 129 -27z m845 -100 c41 -65 77
-119 80 -119 3 0 39 54 80 119 67 107 78 120 103 120 20 0 26 -4 21 -12 -4 -7
-44 -72 -90 -144 l-84 -131 0 -141 0 -142 -30 0 -30 0 0 142 0 141 -84 131
c-46 72 -86 137 -90 144 -5 8 1 12 21 12 25 0 36 -13 103 -120z m1110 -35 l0
-85 85 0 85 0 0 -30 0 -30 -85 0 -85 0 0 -85 0 -85 -30 0 -30 0 0 85 0 85 -85
0 -85 0 0 30 0 30 85 0 85 0 0 85 0 85 30 0 30 0 0 -85z"/>
<path d="M430 3115 l0 -95 56 0 c48 0 59 4 85 29 23 24 29 38 29 75 0 62 -31
86 -111 86 l-59 0 0 -95z"/>
<path d="M430 2855 l0 -115 70 0 c38 0 80 5 93 11 33 15 57 60 57 106 0 75
-54 113 -160 113 l-60 0 0 -115z"/>
<path d="M1980 2235 l0 -95 56 0 c48 0 59 4 85 29 23 24 29 38 29 75 0 62 -31
86 -111 86 l-59 0 0 -95z"/>
<path d="M1980 1975 l0 -115 70 0 c38 0 80 5 93 11 33 15 57 60 57 106 0 75
-54 113 -160 113 l-60 0 0 -115z"/>
</g>
</svg>
