<svg version="1.1" xmlns="http://www.w3.org/2000/svg" data-icon="person" width="128" height="128" class="iconic iconic-person" viewBox="0 0 128 128">
  <g><title>Person</title></g>
<g data-width="16" data-height="16" class="iconic-sm iconic-container" display="inline" transform="scale(8)">
    <g class="iconic-person-male" display="inline">
      <path fill="#090707" d="M12.5 10c-1 1.3-2.6 2-4.5 2s-3.4-.7-4.5-2c-2 .3-3.5 2-3.5 4v2h16v-2c0-2-1.5-3.7-3.5-4z" class="iconic-person-male-body iconic-property-fill"/>
      <path fill="#090707" d="M10 1c-.1-.9-1.2-1-2-1-4 0-4.8 3.2-4 5 0 2.8 1 5 4 5s4-2.2 4-5c1-3-1-4-2-4z" class="iconic-person-male-head iconic-property-fill"/>
    </g>
  </g>
</svg>
