<?xml version="1.0" encoding="utf-8"?>
<!-- Generator: Adobe Illustrator 20.0.0, SVG Export Plug-In . SVG Version: 6.00 Build 0)  -->
<svg version="1.1" id="Layer_2" xmlns="http://www.w3.org/2000/svg" xmlns:xlink="http://www.w3.org/1999/xlink" x="0px" y="0px"
	 viewBox="0 0 109 40.5" style="enable-background:new 0 0 109 40.5;" xml:space="preserve">
<style type="text/css">
	.st0{fill:black;}
	.st1{fill:#F48120;}
	.st2{fill:#FAAD3F;}
	.st3{fill:#ffffff;}
</style>
<g>
	<polygon class="st3" points="98.6,14.2 93,12.9 92,12.5 66.3,12.7 66.3,25.1 98.6,25.2 	"/>
	<g>
		<path class="st1" d="M88.1,24c0.3-1,0.2-2-0.3-2.6c-0.5-0.6-1.2-1-2.1-1.1l-17.4-0.2c-0.1,0-0.2-0.1-0.3-0.1
			c-0.1-0.1-0.1-0.2,0-0.3c0.1-0.2,0.2-0.3,0.4-0.3l17.5-0.2c2.1-0.1,4.3-1.8,5.1-3.8l1-2.6c0-0.1,0.1-0.2,0-0.3
			c-1.1-5.1-5.7-8.9-11.1-8.9c-5,0-9.3,3.2-10.8,7.7c-1-0.7-2.2-1.1-3.6-1c-2.4,0.2-4.3,2.2-4.6,4.6c-0.1,0.6,0,1.2,0.1,1.8
			c-3.9,0.1-7.1,3.3-7.1,7.3c0,0.4,0,0.7,0.1,1.1c0,0.2,0.2,0.3,0.3,0.3l32.1,0c0.2,0,0.4-0.1,0.4-0.3L88.1,24z"/>
		<path class="st2" d="M93.6,12.8c-0.2,0-0.3,0-0.5,0c-0.1,0-0.2,0.1-0.3,0.2l-0.7,2.4c-0.3,1-0.2,2,0.3,2.6c0.5,0.6,1.2,1,2.1,1.1
			l3.7,0.2c0.1,0,0.2,0.1,0.3,0.1c0.1,0.1,0.1,0.2,0,0.3c-0.1,0.2-0.2,0.3-0.4,0.3l-3.8,0.2c-2.1,0.1-4.3,1.8-5.1,3.8L89,24.9
			c-0.1,0.1,0,0.3,0.2,0.3h13.2c0.2,0,0.3-0.1,0.3-0.3c0.2-0.8,0.4-1.7,0.4-2.6C103.1,17.1,98.8,12.8,93.6,12.8"/>
		<path class="st0" d="M104.4,30.8c-0.5,0-0.9-0.4-0.9-0.9c0-0.5,0.4-0.9,0.9-0.9c0.5,0,0.9,0.4,0.9,0.9
			C105.3,30.4,104.9,30.8,104.4,30.8 M104.4,29.2c-0.4,0-0.7,0.3-0.7,0.7c0,0.4,0.3,0.7,0.7,0.7c0.4,0,0.7-0.3,0.7-0.7
			C105.1,29.5,104.8,29.2,104.4,29.2 M104.8,30.4h-0.2l-0.2-0.3h-0.2v0.3h-0.2v-0.9h0.5c0.2,0,0.3,0.1,0.3,0.3
			c0,0.1-0.1,0.2-0.2,0.3L104.8,30.4z M104.5,29.9c0.1,0,0.1,0,0.1-0.1c0-0.1-0.1-0.1-0.1-0.1h-0.3v0.3H104.5z"/>
		<polygon class="st0" points="14.8,29 17,29 17,35 20.8,35 20.8,36.9 14.8,36.9 		"/>
		<path class="st0" d="M23.1,32.9L23.1,32.9c0-2.3,1.8-4.1,4.3-4.1s4.2,1.8,4.2,4.1v0c0,2.3-1.8,4.1-4.3,4.1
			C24.9,37,23.1,35.2,23.1,32.9 M29.4,32.9L29.4,32.9c0-1.2-0.8-2.2-2-2.2c-1.2,0-2,1-2,2.1v0c0,1.1,0.8,2.1,2,2.1
			C28.6,35.1,29.4,34.1,29.4,32.9"/>
		<path class="st0" d="M34.3,33.4V29h2.2v4.4c0,1.1,0.6,1.7,1.5,1.7s1.5-0.5,1.5-1.6V29h2.2v4.4c0,2.6-1.5,3.7-3.7,3.7
			C35.7,37,34.3,35.9,34.3,33.4"/>
		<path class="st0" d="M45,29h3.1c2.8,0,4.5,1.6,4.5,3.9v0c0,2.3-1.7,4-4.5,4h-3V29z M48.1,34.9c1.3,0,2.2-0.7,2.2-2v0
			c0-1.3-0.9-2-2.2-2h-0.9v4H48.1z"/>
		<polygon class="st0" points="55.7,29 62,29 62,30.9 57.9,30.9 57.9,32.2 61.6,32.2 61.6,34 57.9,34 57.9,36.9 55.7,36.9 		"/>
		<polygon class="st0" points="65.1,29 67.3,29 67.3,35 71.1,35 71.1,36.9 65.1,36.9 		"/>
		<path class="st0" d="M76.8,28.9H79l3.4,8H80l-0.6-1.4h-3.1l-0.6,1.4h-2.3L76.8,28.9z M78.8,33.8l-0.9-2.2L77,33.8H78.8z"/>
		<path class="st0" d="M85.2,29h3.7c1.2,0,2,0.3,2.6,0.9c0.5,0.5,0.7,1.1,0.7,1.8v0c0,1.2-0.6,2-1.6,2.4l1.9,2.8h-2.5l-1.6-2.4h-1
			v2.4h-2.2V29z M88.8,32.8c0.7,0,1.2-0.4,1.2-0.9v0c0-0.6-0.5-0.9-1.2-0.9h-1.4v1.9H88.8z"/>
		<polygon class="st0" points="95.3,29 101.7,29 101.7,30.8 97.5,30.8 97.5,32 101.3,32 101.3,33.8 97.5,33.8 97.5,35 101.8,35 
			101.8,36.9 95.3,36.9 		"/>
		<path class="st0" d="M10,33.9c-0.3,0.7-1,1.2-1.8,1.2c-1.2,0-2-1-2-2.1v0c0-1.1,0.8-2.1,2-2.1c0.9,0,1.6,0.6,1.9,1.3h2.3
			c-0.4-1.9-2-3.3-4.2-3.3c-2.4,0-4.3,1.8-4.3,4.1v0c0,2.3,1.8,4.1,4.2,4.1c2.1,0,3.7-1.4,4.2-3.2H10z"/>
	</g>
</g>
</svg>
