<svg xmlns="http://www.w3.org/2000/svg" class="iconic iconic-tag" width="128" height="128" viewBox="0 0 128 128">
  <g class="iconic-metadata">
    <title>Tag</title>
  </g>
  <defs>
    <clipPath id="iconic-size-lg-tag-clip-0">
      <path d="M48 0h-48v48l80 80 48-48-80-80zm-22 34c-4.418 0-8-3.582-8-8s3.582-8 8-8 8 3.582 8 8-3.582 8-8 8z" />
    </clipPath>
    <clipPath id="iconic-size-md-tag-clip-0">
      <path d="M12 0h-12v12.01l20 19.99 12-12-20-20zm-5.5 9c-1.381 0-2.5-1.119-2.5-2.5s1.119-2.5 2.5-2.5 2.5 1.119 2.5 2.5-1.119 2.5-2.5 2.5z" />
    </clipPath>
  </defs>
  <g class="iconic-tag-sm iconic-container iconic-sm" data-width="16" data-height="16" display="inline" transform="scale(8)">
    <path fill="#090707" d="M6 0h-6v6.005l10.006 9.995 5.994-6-10-10zm-2 6c-1.105 0-2-.895-2-2s.895-2 2-2 2 .895 2 2-.895 2-2 2z" class="iconic-property-fill" />
  </g>
</svg>