<svg xmlns="http://www.w3.org/2000/svg" xmlns:xlink="http://www.w3.org/1999/xlink" viewBox="0 0 452.7 169.7"><defs><path id="a" d="M.3.3H452v169H.3z"></path></defs><clipPath id="b"><use xlink:href="#a" overflow="visible"></use></clipPath><path d="M146.4 94.1l-3.5 12.5h-11.4L146.4 58h14.4l15 48.5H164L160.3 94l-13.9.1zm12.3-8.2l-3-10.3c-.9-2.9-1.7-6.5-2.4-9.4h-.1c-.7 2.9-1.4 6.6-2.2 9.4l-3 10.3h10.7z" clip-path="url(#b)" fill="#282827"></path><defs><path id="c" d="M.3.3H452v169H.3z"></path></defs><clipPath id="d"><use xlink:href="#c" overflow="visible"></use></clipPath><path d="M180.8 83.2c0-4.6-.1-8.6-.3-11.8h9.5l.5 4.9h.1c2.6-3.7 6.6-5.7 11.7-5.7 7.7 0 14.6 6.7 14.6 17.9 0 12.8-8.1 18.9-16 18.9-4.2 0-7.6-1.7-9.1-4h-.1v17.5h-10.9V83.2zm10.9 8.3c0 .9.1 1.7.2 2.3.7 3 3.2 5.2 6.4 5.2 4.8 0 7.6-4 7.6-9.9 0-5.6-2.5-9.9-7.4-9.9-3.1 0-5.8 2.3-6.6 5.5-.1.6-.2 1.3-.2 1.9v4.9z" clip-path="url(#d)" fill="#282827"></path><defs><path id="e" d="M.3.3H452v169H.3z"></path></defs><clipPath id="f"><use xlink:href="#e" overflow="visible"></use></clipPath><path d="M223.1 83.2c0-4.6-.1-8.6-.3-11.8h9.5l.5 4.9h.1c2.6-3.7 6.6-5.7 11.7-5.7 7.7 0 14.6 6.7 14.6 17.9 0 12.8-8.1 18.9-16 18.9-4.2 0-7.6-1.7-9.1-4h-.1v17.5h-10.9V83.2zm11 8.3c0 .9.1 1.7.2 2.3.7 3 3.2 5.2 6.4 5.2 4.8 0 7.6-4 7.6-9.9 0-5.6-2.5-9.9-7.4-9.9-3.1 0-5.8 2.3-6.6 5.5-.1.6-.2 1.3-.2 1.9v4.9z" clip-path="url(#f)" fill="#282827"></path><defs><path id="g" d="M.3.3H452v169H.3z"></path></defs><clipPath id="h"><use xlink:href="#g" overflow="visible"></use></clipPath><path d="M266.5 106.6V58h6.8l15.6 24.6c3.6 5.7 6.4 10.8 8.7 15.8l.1-.1c-.6-6.5-.7-12.4-.7-19.9V58h5.9v48.5h-6.3L281.2 82c-3.4-5.4-6.6-10.9-9.1-16.2l-.2.1c.4 6.1.5 12 .5 20v20.7h-5.9z" clip-path="url(#h)" fill="#282827"></path><defs><path id="i" d="M.3.3H452v169H.3z"></path></defs><clipPath id="j"><use xlink:href="#i" overflow="visible"></use></clipPath><path d="M316.5 90.3c.1 8.6 5.6 12.1 12 12.1 4.5 0 7.3-.8 9.6-1.8l1.1 4.5c-2.2 1-6 2.2-11.6 2.2-10.7 0-17.1-7.1-17.1-17.6s6.2-18.8 16.3-18.8c11.4 0 14.4 10 14.4 16.4 0 1.3-.1 2.3-.2 3h-24.5zm18.6-4.5c.1-4-1.7-10.3-8.8-10.3-6.4 0-9.2 5.9-9.7 10.3h18.5z" clip-path="url(#j)" fill="#282827"></path><defs><path id="k" d="M.3.3H452v169H.3z"></path></defs><clipPath id="l"><use xlink:href="#k" overflow="visible"></use></clipPath><path d="M356 61.7v10h9.1v4.8H356v18.8c0 4.3 1.2 6.8 4.8 6.8 1.7 0 2.9-.2 3.7-.4l.3 4.8c-1.2.5-3.2.9-5.6.9-3 0-5.3-.9-6.8-2.7-1.8-1.9-2.4-5-2.4-9.1v-19h-5.4v-4.8h5.4v-8.4l6-1.7z" clip-path="url(#l)" fill="#282827"></path><defs><path id="m" d="M.3.3H452v169H.3z"></path></defs><clipPath id="n"><use xlink:href="#m" overflow="visible"></use></clipPath><path d="M390.7 106.6l-.5-4.4h-.2c-1.9 2.7-5.7 5.2-10.7 5.2-7.1 0-10.7-5-10.7-10 0-8.4 7.5-13 21-13v-.7c0-2.9-.8-8.1-7.9-8.1-3.2 0-6.6 1-9.1 2.6l-1.4-4.2c2.9-1.9 7.1-3.1 11.4-3.1 10.7 0 13.2 7.3 13.2 14.3v13c0 3 .1 6 .6 8.4h-5.7zm-.9-17.8c-6.9-.1-14.8 1.1-14.8 7.8 0 4.1 2.7 6 6 6 4.5 0 7.4-2.9 8.4-5.8.2-.6.4-1.4.4-2v-6z" clip-path="url(#n)" fill="#282827"></path><defs><path id="o" d="M.3.3H452v169H.3z"></path></defs><clipPath id="p"><use xlink:href="#o" overflow="visible"></use></clipPath><path d="M403.5 66.6c0 1.9-1.5 3.3-3.4 3.3s-3.4-1.5-3.4-3.3 1.5-3.3 3.4-3.3c2 0 3.4 1.5 3.4 3.3m-5.9 0c0 1.5 1.1 2.6 2.6 2.6 1.4 0 2.5-1.2 2.5-2.6 0-1.5-1.1-2.6-2.5-2.6-1.5 0-2.6 1.2-2.6 2.6m2.1 1.7h-.8V65c.3-.1.7-.1 1.3-.1.6 0 .9.1 1.1.2s.3.4.3.7c0 .4-.3.6-.7.8.3.1.5.4.6.8.1.5.2.7.2.8h-.7c-.1-.1-.2-.4-.3-.8-.1-.4-.3-.5-.7-.5h-.4v1.4h.1zm0-1.8h.4c.4 0 .8-.1.8-.5 0-.3-.2-.5-.7-.5h-.4l-.1 1z" clip-path="url(#p)" fill="#282827"></path><defs><path id="q" d="M.3.3H452v169H.3z"></path></defs><clipPath id="r"><use xlink:href="#q" overflow="visible"></use></clipPath><path clip-path="url(#r)" fill="#28BDC0" d="M69.2 95.2v14.6l12.6 7.3 12.6-21.9"></path><defs><path id="s" d="M.3.3H452v169H.3z"></path></defs><clipPath id="t"><use xlink:href="#s" overflow="visible"></use></clipPath><path clip-path="url(#t)" fill="#5AC6D6" d="M69.2 95.2l12.6 7.3 12.6-7.3-12.6-7.3"></path><g><defs><path id="u" d="M.3.3H452v169H.3z"></path></defs><clipPath id="v"><use xlink:href="#u" overflow="visible"></use></clipPath><path clip-path="url(#v)" fill="#2CA4BA" d="M94.4 95.2l-12.6 7.3v14.6l12.6-7.3"></path></g><g><defs><path id="w" d="M.3.3H452v169H.3z"></path></defs><clipPath id="x"><use xlink:href="#w" overflow="visible"></use></clipPath><path clip-path="url(#x)" fill="#CC2D2D" d="M81.8 73.3v14.6l12.6 7.3 12.7-21.9"></path></g><g><defs><path id="y" d="M.3.3H452v169H.3z"></path></defs><clipPath id="z"><use xlink:href="#y" overflow="visible"></use></clipPath><path clip-path="url(#z)" fill="#E12226" d="M81.8 73.3l12.6 7.3 12.7-7.3L94.4 66"></path></g><g><defs><path id="A" d="M.3.3H452v169H.3z"></path></defs><clipPath id="B"><use xlink:href="#A" overflow="visible"></use></clipPath><path clip-path="url(#B)" fill="#AD2C2C" d="M107.1 73.3l-12.7 7.3v14.6l12.7-7.3"></path></g><g><defs><path id="C" d="M.3.3H452v169H.3z"></path></defs><clipPath id="D"><use xlink:href="#C" overflow="visible"></use></clipPath><path clip-path="url(#D)" fill="#A8B94D" d="M56.5 73.3v14.6l12.7 7.3 12.6-21.9"></path></g><g><defs><path id="E" d="M.3.3H452v169H.3z"></path></defs><clipPath id="F"><use xlink:href="#E" overflow="visible"></use></clipPath><path clip-path="url(#F)" fill="#BAC83C" d="M56.5 73.3l12.7 7.3 12.6-7.3L69.2 66"></path></g><g><defs><path id="G" d="M.3.3H452v169H.3z"></path></defs><clipPath id="H"><use xlink:href="#G" overflow="visible"></use></clipPath><path clip-path="url(#H)" fill="#819E5D" d="M81.8 73.3l-12.6 7.3v14.6l12.6-7.3"></path></g><g><defs><path id="I" d="M.3.3H452v169H.3z"></path></defs><clipPath id="J"><use xlink:href="#I" overflow="visible"></use></clipPath><path clip-path="url(#J)" fill="#FFCE00" d="M69.2 80.6v14.6l12.6 7.3 12.6-21.9"></path></g><g><defs><path id="K" d="M.3.3H452v169H.3z"></path></defs><clipPath id="L"><use xlink:href="#K" overflow="visible"></use></clipPath><path clip-path="url(#L)" fill="#FFE000" d="M69.2 80.6l12.6 7.3 12.6-7.3-12.6-7.3"></path></g><g><defs><path id="M" d="M.3.3H452v169H.3z"></path></defs><clipPath id="N"><use xlink:href="#M" overflow="visible"></use></clipPath><path clip-path="url(#N)" fill="#E4BE44" d="M94.4 80.6l-12.6 7.3v14.6l12.6-7.3"></path></g><g><defs><path id="O" d="M.3.3H452v169H.3z"></path></defs><clipPath id="P"><use xlink:href="#O" overflow="visible"></use></clipPath><path clip-path="url(#P)" fill="#28BDC0" d="M74 53.2v9l7.8 4.4 7.7-13.4"></path></g><g><defs><path id="Q" d="M.3.3H452v169H.3z"></path></defs><clipPath id="R"><use xlink:href="#Q" overflow="visible"></use></clipPath><path clip-path="url(#R)" fill="#5AC6D6" d="M74 53.2l7.8 4.5 7.7-4.5-7.7-4.5"></path></g><g><defs><path id="S" d="M.3.3H452v169H.3z"></path></defs><clipPath id="T"><use xlink:href="#S" overflow="visible"></use></clipPath><path clip-path="url(#T)" fill="#2CA4BA" d="M89.5 53.2l-7.7 4.5v8.9l7.7-4.4"></path></g><g><defs><path id="U" d="M.3.3H452v169H.3z"></path></defs><clipPath id="V"><use xlink:href="#U" overflow="visible"></use></clipPath><path clip-path="url(#V)" fill="#A8B94D" d="M100.1 98.3v9l7.8 4.5 7.7-13.5"></path></g><g><defs><path id="W" d="M.3.3H452v169H.3z"></path></defs><clipPath id="X"><use xlink:href="#W" overflow="visible"></use></clipPath><path clip-path="url(#X)" fill="#BAC83C" d="M100.1 98.3l7.8 4.5 7.7-4.5-7.7-4.4"></path></g><g><defs><path id="Y" d="M.3.3H452v169H.3z"></path></defs><clipPath id="Z"><use xlink:href="#Y" overflow="visible"></use></clipPath><path clip-path="url(#Z)" fill="#819E5D" d="M115.6 98.3l-7.7 4.5v9l7.7-4.5"></path></g><g><defs><path id="aa" d="M.3.3H452v169H.3z"></path></defs><clipPath id="ab"><use xlink:href="#aa" overflow="visible"></use></clipPath><path clip-path="url(#ab)" fill="#CC2D2D" d="M48 98.3v9l7.7 4.5 7.8-13.5"></path></g><g><defs><path id="ac" d="M.3.3H452v169H.3z"></path></defs><clipPath id="ad"><use xlink:href="#ac" overflow="visible"></use></clipPath><path clip-path="url(#ad)" fill="#E12226" d="M48 98.3l7.7 4.5 7.8-4.5-7.8-4.4"></path></g><g><defs><path id="ae" d="M.3.3H452v169H.3z"></path></defs><clipPath id="af"><use xlink:href="#ae" overflow="visible"></use></clipPath><path clip-path="url(#af)" fill="#AD2C2C" d="M63.5 98.3l-7.8 4.5v9l7.8-4.5"></path></g></svg>