<?xml version="1.0" ?><!DOCTYPE svg  PUBLIC '-//W3C//DTD SVG 1.1//EN'  'http://www.w3.org/Graphics/SVG/1.1/DTD/svg11.dtd'><svg enable-background="new 0 0 512 512" id="Layer_1" version="1.1" viewBox="0 0 512 512" xml:space="preserve" xmlns="http://www.w3.org/2000/svg" xmlns:xlink="http://www.w3.org/1999/xlink"><g><path d="M6,53.5C6,38.8,6.2,24.2,6,9.5c-0.1-3.8,1-4.7,4.7-4.6c42.2,0.3,83.6,6.4,124.3,17.6   c51.5,14.1,99.1,36.4,143.3,66.3c38.8,26.3,73.3,57.4,103.2,93.4c40.2,48.3,70.5,102.2,90.8,161.8c17.7,52.2,26.4,105.8,27.4,160.8   c0.1,3-1.1,3.7-3.8,3.7c-29.3-0.1-58.7-0.1-88,0c-3.5,0-3.6-1.8-3.6-4.4c0-20.7-1.8-41.2-5.1-61.7c-5.9-36.3-16.4-71.2-31.6-104.7   c-16.2-35.7-37-68.4-62.7-98c-26.4-30.5-56.6-56.7-90.9-78.1c-30.6-19.2-63.2-34.1-97.9-44.2c-34.1-10-68.8-15.5-104.4-15.6   c-4.4,0-5.9-1-5.8-5.8C6.3,81.8,6,67.6,6,53.5z" fill="#F26F25"/><path d="M6,224.2c0-14.5,0.1-29-0.1-43.5c-0.1-3.8,1.1-4.7,4.8-4.7c38.6,0.9,76.1,7.9,112,22.2   c45.1,17.8,84.3,44.5,117.6,79.7c31.5,33.3,55,71.6,70.8,114.6c13.3,36.2,19.8,73.5,20.5,111.9c0.1,3.2-1,3.9-3.9,3.9   c-29-0.1-58-0.1-87,0c-3.6,0-4.5-1.2-4.5-4.6c-0.3-40.8-10.7-78.9-31-114.3c-19.1-33.3-44.9-60.4-77.3-81.3   c-28.5-18.3-59.6-29.2-93-33.9c-8.2-1.2-16.6-1.8-24.9-1.4c-3.4,0.1-4.2-1.1-4.1-4.3C6.1,253.8,6,239,6,224.2z" fill="#F26F25"/><path d="M71.9,374.5c36.2,0,65.4,29.7,65.4,66.6c0,37.1-29.3,66.9-65.7,66.9c-36.5,0-65.7-29.8-65.6-67   C6,403.8,35,374.5,71.9,374.5z" fill="#F26F25"/></g></svg>